<svg width="134" height="27" viewBox="0 0 134 27" fill="none" xmlns="http://www.w3.org/2000/svg">
<path d="M17.8993 19.55H6.34933L3.94933 25.49H0.649333L10.5493 1.46H13.8793L23.7493 25.49H20.2993L17.8993 19.55ZM16.7893 16.76L12.1393 5.15L7.45933 16.76H16.7893ZM93.1513 0.889999C94.8913 0.889999 96.4613 1.2 97.8613 1.82C99.2613 2.42 100.381 3.27 101.221 4.37C102.061 5.47 102.531 6.71 102.631 8.09H99.3913C99.2113 6.77 98.5513 5.69 97.4113 4.85C96.2913 4.01 94.8213 3.59 93.0013 3.59C91.1613 3.59 89.7113 3.94 88.6513 4.64C87.6113 5.32 87.0913 6.21 87.0913 7.31C87.0913 8.13 87.3413 8.82 87.8413 9.38C88.3413 9.92 89.1113 10.39 90.1513 10.79C91.2113 11.19 92.6413 11.58 94.4413 11.96C97.3413 12.58 99.4413 13.47 100.741 14.63C102.061 15.77 102.721 17.25 102.721 19.07C102.721 20.47 102.301 21.7 101.461 22.76C100.621 23.8 99.4713 24.6 98.0113 25.16C96.5513 25.74 94.9313 26.03 93.1513 26.03C91.2913 26.03 89.6213 25.71 88.1413 25.07C86.6813 24.43 85.5113 23.53 84.6313 22.37C83.7513 21.21 83.2613 19.86 83.1613 18.32H86.4013C86.5613 19.8 87.2613 21 88.5013 21.92C89.7613 22.84 91.3813 23.3 93.3613 23.3C94.5413 23.3 95.6013 23.13 96.5413 22.79C97.4813 22.45 98.2113 21.97 98.7313 21.35C99.2513 20.73 99.5113 20.03 99.5113 19.25C99.5113 18.37 99.2613 17.64 98.7613 17.06C98.2613 16.48 97.4813 15.99 96.4213 15.59C95.3813 15.17 93.9413 14.77 92.1013 14.39C89.3013 13.81 87.2313 12.97 85.8913 11.87C84.5713 10.77 83.9113 9.25 83.9113 7.31C83.9113 6.01 84.3013 4.88 85.0813 3.92C85.8813 2.94 86.9813 2.19 88.3813 1.67C89.7813 1.15 91.3713 0.889999 93.1513 0.889999ZM120.753 26.03C118.353 26.03 116.183 25.49 114.243 24.41C112.323 23.33 110.813 21.83 109.713 19.91C108.613 17.99 108.063 15.84 108.063 13.46C108.063 11.08 108.603 8.93 109.683 7.01C110.783 5.09 112.293 3.59 114.213 2.51C116.153 1.43 118.323 0.889999 120.723 0.889999C123.123 0.889999 125.283 1.43 127.203 2.51C129.143 3.59 130.663 5.09 131.763 7.01C132.863 8.93 133.413 11.08 133.413 13.46C133.413 15.84 132.863 17.99 131.763 19.91C130.683 21.83 129.173 23.33 127.233 24.41C125.313 25.49 123.153 26.03 120.753 26.03ZM120.753 23.15C122.553 23.15 124.173 22.74 125.613 21.92C127.073 21.08 128.213 19.93 129.033 18.47C129.853 16.99 130.263 15.32 130.263 13.46C130.263 11.6 129.853 9.94 129.033 8.48C128.213 7 127.073 5.85 125.613 5.03C124.173 4.19 122.543 3.77 120.723 3.77C118.903 3.77 117.273 4.19 115.833 5.03C114.393 5.85 113.263 7 112.443 8.48C111.623 9.94 111.213 11.6 111.213 13.46C111.213 15.32 111.623 16.99 112.443 18.47C113.263 19.93 114.403 21.08 115.863 21.92C117.323 22.74 118.953 23.15 120.753 23.15Z" fill="black"/>
<path d="M32.285 1.46L46.835 20.18V1.31H50.015V25.34H47.045L32.495 6.62V25.49H29.345V1.46H32.285ZM72.8556 19.55H61.3056L58.9056 25.49H55.6056L65.5056 1.46H68.8356L78.7056 25.49H75.2556L72.8556 19.55ZM71.7456 16.76L67.0956 5.15L62.4156 16.76H71.7456Z" fill="#7EDBB0"/>
</svg>
