<svg width="current" height="current" viewBox="0 0 91 27" fill="none" xmlns="http://www.w3.org/2000/svg">
<path d="M27.6539 6.59V9.44H24.0539V19.52H21.0839V0.499998H24.0539V6.59H27.6539ZM16.8239 8.21C16.8239 9.65 16.4939 10.93 15.8339 12.05C15.1939 13.17 14.2739 14.05 13.0739 14.69C11.8739 15.33 10.4639 15.65 8.84387 15.65C7.22387 15.65 5.80387 15.33 4.58387 14.69C3.38387 14.05 2.45387 13.17 1.79387 12.05C1.15387 10.91 0.833867 9.63 0.833867 8.21C0.833867 6.79 1.15387 5.52 1.79387 4.4C2.45387 3.26 3.38387 2.37 4.58387 1.73C5.80387 1.09 7.22387 0.769998 8.84387 0.769998C10.4639 0.769998 11.8739 1.09 13.0739 1.73C14.2739 2.37 15.1939 3.25 15.8339 4.37C16.4939 5.49 16.8239 6.77 16.8239 8.21ZM3.80387 8.21C3.80387 9.71 4.26387 10.91 5.18387 11.81C6.10387 12.69 7.32387 13.13 8.84387 13.13C10.3639 13.13 11.5739 12.69 12.4739 11.81C13.3939 10.91 13.8539 9.71 13.8539 8.21C13.8539 6.71 13.3939 5.51 12.4739 4.61C11.5539 3.71 10.3439 3.26 8.84387 3.26C7.32387 3.26 6.10387 3.71 5.18387 4.61C4.26387 5.51 3.80387 6.71 3.80387 8.21ZM5.96387 23.09H24.7439V25.79H2.93387V17.42H5.96387V23.09ZM77.0587 8.93C75.5987 11.17 73.8187 12.94 71.7187 14.24C69.6187 15.54 67.4087 16.19 65.0887 16.19V13.37C66.9087 13.37 68.6487 12.81 70.3087 11.69C71.9887 10.55 73.4187 9.01 74.5987 7.07C75.7987 5.11 76.6187 2.96 77.0587 0.619998L80.1187 1.16C79.7587 3.06 79.1787 4.86 78.3787 6.56L89.5987 13.91L87.9787 16.28L77.0587 8.93ZM90.1687 22.1V24.89H64.5787V22.1H75.8287V14.93H78.8587V22.1H90.1687Z" fill="black"/>
<path d="M59.5113 13.73H55.9113V26.12H52.9413V0.499998H55.9113V10.88H59.5113V13.73ZM44.0913 21.83C45.3113 21.83 46.5213 21.73 47.7213 21.53C48.9413 21.31 49.9413 21.02 50.7213 20.66V23.36C49.9613 23.74 48.9713 24.04 47.7513 24.26C46.5313 24.48 45.2913 24.59 44.0313 24.59H33.9213V1.28H36.9513V21.83H44.0913Z" fill="#7EDBB0"/>
</svg>
